<svg width="83" height="82" viewBox="0 0 83 82" fill="none" xmlns="http://www.w3.org/2000/svg">
<g clip-path="url(#clip0)">
<path d="M66.5327 10.6953C57.621 10.6953 50.3721 17.8935 50.3721 26.7388C50.3721 27.7228 51.1747 28.5214 52.1677 28.5214C53.1607 28.5214 53.9633 27.7228 53.9633 26.7388C53.9633 19.8579 59.6034 14.2605 66.5327 14.2605C73.462 14.2605 79.102 19.8579 79.102 26.7388C79.102 33.6197 73.462 39.2171 66.5327 39.2171H1.89035C0.899165 39.2171 0.0947266 40.0157 0.0947266 40.9997C0.0947266 41.9837 0.899165 42.7823 1.89035 42.7823H66.5327C75.4443 42.7823 82.6933 35.5841 82.6933 26.7388C82.6933 17.8935 75.4443 10.6953 66.5327 10.6953Z" fill="#F5DF68"/>
<path d="M32.4159 7.13086C25.4848 7.13086 19.8466 12.7283 19.8466 19.6091C19.8466 20.5931 20.651 21.3917 21.6422 21.3917C22.6334 21.3917 23.4378 20.5931 23.4378 19.6091C23.4378 14.6945 27.4654 10.6961 32.4159 10.6961C37.3664 10.6961 41.394 14.6945 41.394 19.6091C41.394 24.5238 37.3664 28.5222 32.4159 28.5222H1.89035C0.899165 28.5222 0.0947266 29.3208 0.0947266 30.3048C0.0947266 31.2888 0.899165 32.0874 1.89035 32.0874H32.4159C39.347 32.0874 44.9852 26.49 44.9852 19.6091C44.9852 12.7283 39.347 7.13086 32.4159 7.13086Z" fill="#F5DF68"/>
<path d="M62.9414 49.9131H1.89035C0.899165 49.9131 0.0947266 50.7117 0.0947266 51.6957C0.0947266 52.6797 0.899165 53.4783 1.89035 53.4783H62.9414C67.892 53.4783 71.9195 57.4767 71.9195 62.3913C71.9195 67.306 67.892 71.3044 62.9414 71.3044C57.9909 71.3044 53.9633 67.306 53.9633 62.3913C53.9633 61.4073 53.1607 60.6087 52.1677 60.6087C51.1747 60.6087 50.3721 61.4073 50.3721 62.3913C50.3721 69.2722 56.0121 74.8696 62.9414 74.8696C69.8707 74.8696 75.5108 69.2722 75.5108 62.3913C75.5108 55.5105 69.8707 49.9131 62.9414 49.9131Z" fill="#F5DF68"/>
</g>
<defs>
<clipPath id="clip0">
<rect x="0.0947266" width="82.5985" height="82" fill="white"/>
</clipPath>
</defs>
</svg>
