<svg width="69" height="68" viewBox="0 0 69 68" fill="none" xmlns="http://www.w3.org/2000/svg">
<g clip-path="url(#clip0)">
<path d="M48.8106 41.7677C48.1971 41.2222 47.2545 41.2754 46.708 41.883C43.6019 45.3288 39.1228 47.3037 34.4159 47.3037C29.7105 47.3037 25.23 45.3288 22.1238 41.883C21.5743 41.2754 20.6347 41.2222 20.0213 41.7677C19.4078 42.3117 19.3571 43.2459 19.9051 43.855C23.5756 47.9261 28.8647 50.2603 34.4159 50.2603C39.9686 50.2603 45.2577 47.9246 48.9267 43.855C49.4747 43.2459 49.4226 42.3117 48.8106 41.7677Z" fill="#F5DF68"/>
<path d="M34.4161 0C15.532 0 0.167969 15.2527 0.167969 34C0.167969 52.7473 15.532 68 34.4161 68C53.3003 68 68.6643 52.7473 68.6643 34C68.6643 15.2527 53.3003 0 34.4161 0ZM34.4161 65.0435C17.1729 65.0435 3.14607 51.1183 3.14607 34C3.14607 16.8817 17.1729 2.95652 34.4161 2.95652C51.6594 2.95652 65.6862 16.8817 65.6862 34C65.6862 51.1183 51.6594 65.0435 34.4161 65.0435Z" fill="#F5DF68"/>
<path d="M46.3286 23.6523C42.2232 23.6523 38.8833 26.9681 38.8833 31.0436C38.8833 31.8596 39.5504 32.5219 40.3724 32.5219C41.1943 32.5219 41.8614 31.8596 41.8614 31.0436C41.8614 28.5986 43.8657 26.6089 46.3286 26.6089C48.7914 26.6089 50.7957 28.5986 50.7957 31.0436C50.7957 31.8596 51.4628 32.5219 52.2848 32.5219C53.1067 32.5219 53.7738 31.8596 53.7738 31.0436C53.7738 26.9681 50.4339 23.6523 46.3286 23.6523Z" fill="#F5DF68"/>
<path d="M26.971 31.0436C26.971 31.8596 27.6381 32.5219 28.4601 32.5219C29.282 32.5219 29.9491 31.8596 29.9491 31.0436C29.9491 26.9681 26.6092 23.6523 22.5038 23.6523C18.3985 23.6523 15.0586 26.9681 15.0586 31.0436C15.0586 31.8596 15.7257 32.5219 16.5476 32.5219C17.3696 32.5219 18.0367 31.8596 18.0367 31.0436C18.0367 28.5986 20.041 26.6089 22.5038 26.6089C24.9667 26.6089 26.971 28.5986 26.971 31.0436Z" fill="#F5DF68"/>
</g>
<defs>
<clipPath id="clip0">
<rect x="0.167969" width="68.4964" height="68" fill="white"/>
</clipPath>
</defs>
</svg>
