<svg width="70" height="69" viewBox="0 0 70 69" fill="none" xmlns="http://www.w3.org/2000/svg">
<path d="M68.011 34.5C68.011 52.7151 53.1339 67.5 34.7591 67.5C16.3844 67.5 1.50732 52.7151 1.50732 34.5C1.50732 16.2849 16.3844 1.5 34.7591 1.5C53.1339 1.5 68.011 16.2849 68.011 34.5Z" stroke="#F5DF68" stroke-width="3"/>
<path d="M36.3234 24.9393C35.7376 24.3536 34.7878 24.3536 34.202 24.9393L24.6561 34.4853C24.0703 35.0711 24.0703 36.0208 24.6561 36.6066C25.2419 37.1924 26.1916 37.1924 26.7774 36.6066L35.2627 28.1213L43.748 36.6066C44.3338 37.1924 45.2835 37.1924 45.8693 36.6066C46.4551 36.0208 46.4551 35.0711 45.8693 34.4853L36.3234 24.9393ZM36.7627 47L36.7627 26L33.7627 26L33.7627 47L36.7627 47Z" fill="#F5DF68"/>
</svg>
