<svg width="28" height="25" viewBox="0 0 28 25" fill="none" xmlns="http://www.w3.org/2000/svg">
<path d="M22.5558 0H5.44415C5.2497 0 5.06497 0.0976515 4.95802 0.263659L0.0967447 7.45081C-0.0442324 7.66564 -0.0296486 7.94883 0.130774 8.14413L13.5479 24.7839C13.7812 25.072 14.2188 25.072 14.4521 24.7839L27.8692 8.14413C28.0296 7.94395 28.0442 7.66564 27.9033 7.45081L23.0468 0.263659C22.935 0.0976515 22.7552 0 22.5558 0ZM21.6176 2.34364L24.6948 7.03091H21.3697L18.8564 2.34364H21.6176ZM11.793 2.34364H16.2022L18.7154 7.03091H9.28456L11.793 2.34364ZM6.38238 2.34364H9.14358L6.6303 7.03091H3.30519L6.38238 2.34364ZM4.29203 9.37454H6.79072L10.111 17.1867L4.29203 9.37454ZM9.29428 9.37454H18.7057L14 21.2538L9.29428 9.37454ZM17.889 17.1867L21.2044 9.37454H23.7031L17.889 17.1867Z" fill="white"/>
</svg>
