<svg width="24" height="20" viewBox="0 0 24 20" fill="none" xmlns="http://www.w3.org/2000/svg">
<path d="M0 6.9375C0.401785 7.37946 0.857142 7.76786 1.33928 8.10268C3.57589 9.61607 5.82589 11.1429 8.00893 12.7232C9.13393 13.5536 10.5268 14.5714 11.9866 14.5714H12H12.0134C13.4732 14.5714 14.8661 13.5536 15.9911 12.7232C18.1741 11.1295 20.4241 9.61607 22.6473 8.10268C23.1429 7.76786 23.5982 7.37946 24 6.9375V17.5714C24 18.75 23.0357 19.7143 21.8571 19.7143H2.14286C0.964285 19.7143 0 18.75 0 17.5714V6.9375ZM0 3C0 1.82143 0.977677 0.857142 2.14286 0.857142H21.8571C23.2902 0.857142 24 1.98214 24 3.29464C24 4.51339 22.6473 6.02678 21.6964 6.66964C19.6205 8.11607 17.5179 9.5625 15.442 11.0223C14.5714 11.625 13.0982 12.8571 12.0134 12.8571H12H11.9866C10.9018 12.8571 9.42857 11.625 8.55803 11.0223C6.48214 9.5625 4.37946 8.11607 2.29018 6.66964C1.11161 5.85268 0 4.5 0 3Z" fill="#969696"/>
</svg>
