<svg width="14" height="14" viewBox="0 0 14 14" fill="none" xmlns="http://www.w3.org/2000/svg">
<path d="M13.4913 0.673052L10.6476 0.0168838C10.3382 -0.0545108 10.022 0.105806 9.89682 0.39781L8.58432 3.46023C8.52826 3.59105 8.51624 3.73655 8.55009 3.87479C8.58393 4.01303 8.6618 4.13652 8.77195 4.22665L10.4295 5.58279C9.44581 7.67937 7.72411 9.42481 5.58279 10.4294L4.22665 8.77195C4.13653 8.6618 4.01303 8.58393 3.87479 8.55008C3.73655 8.51624 3.59105 8.52825 3.46023 8.58432L0.397814 9.89682C0.105892 10.0219 -0.0545341 10.3381 0.0168878 10.6476L0.673056 13.4913C0.741252 13.7868 1.00482 14 1.31249 14C8.31487 14 14 8.32529 14 1.31249C14 1.00689 13.7891 0.74174 13.4913 0.673052Z" fill="#A2F495"/>
</svg>
