<svg width="19" height="19" viewBox="0 0 19 19" fill="none" xmlns="http://www.w3.org/2000/svg">
<path d="M0.142856 15.0357C0.142856 14.942 0.142856 14.8482 0.183035 14.7545C0.276785 14.4732 0.933035 14.1786 1.20089 14.0446C1.96428 13.6161 2.74107 13.2009 3.49107 12.7589C3.83928 12.5446 4.26786 12.1429 4.68303 12.1429C5.5 12.1429 6.69196 14.567 7.41518 14.567C7.77678 14.567 8.24553 14.2321 8.56696 14.0446C11.0045 12.692 12.692 11.0045 14.0446 8.56696C14.2321 8.24553 14.567 7.77678 14.567 7.41518C14.567 6.69196 12.1429 5.5 12.1429 4.68303C12.1429 4.26786 12.5446 3.83928 12.7589 3.49107C13.2009 2.74107 13.6161 1.96428 14.0446 1.20089C14.1786 0.933035 14.4732 0.276785 14.7545 0.183035C14.8482 0.142856 14.942 0.142856 15.0357 0.142856C15.5179 0.142856 16.4554 0.357142 16.8973 0.558035C17.5536 0.839285 17.9821 1.58928 18.317 2.19196C18.7455 2.98214 19 3.78571 19 4.68303C19 5.92857 18.4911 7.05357 18.0759 8.19196C17.7812 9.00893 17.4196 9.79911 16.9643 10.5357C15.558 12.8125 12.8125 15.558 10.5357 16.9643C9.79911 17.4196 9.00893 17.7812 8.19196 18.0759C7.05357 18.4911 5.92857 19 4.68303 19C3.78571 19 2.98214 18.7455 2.19196 18.317C1.58928 17.9821 0.839285 17.5536 0.558035 16.8973C0.357142 16.4554 0.142856 15.5179 0.142856 15.0357Z" fill="#969696"/>
</svg>
