<svg xmlns="http://www.w3.org/2000/svg">
  <symbol id="prev" viewBox="0 0 512 512">
    <g>
      <path d="M80,272h319.2L277,388.4c-6.4,6.1-6.6,16.2-0.6,22.6c6.1,6.4,16.2,6.6,22.6,0.6l139.6-133 c6-6,9.4-14.1,9.4-22.6s-3.3-16.6-9.7-22.9L299,100.4c-3.1-3-7.1-4.4-11-4.4c-4.2,0-8.4,1.7-11.6,5c-6.1,6.4-5.8,16.5,0.6,22.6 L399.7,240H80c-8.8,0-16,7.2-16,16C64,264.8,71.2,272,80,272L80,272z"/>
    </g>
  </symbol>

  <symbol id="svg-1" viewBox="0 0 480 480">
    <g>
      <path d="M472,0H112c-4.4,0-8,3.6-8,8v120h16V16h344v440c0.1,4.2-3.2,7.7-7.4,8c-0.7,0-1.4-0.1-2.1-0.1
				c-1.4,0-2.8-0.1-4.2-0.2c-0.1,0-0.2,0-0.4,0c-26.1-2.9-46.8-23.5-49.6-49.6c0-0.1,0-0.2-0.1-0.3c-0.2-1.9-0.3-3.8-0.3-5.7v-16
				c0-4.4-3.6-8-8-8H120V240h-16v144H40c-4.4,0-8,3.6-8,8v16c0,39.7,32.3,72,72,72h352.8c13-0.3,23.3-11,23.2-24V8
				C480,3.6,476.4,0,472,0z M104,464c-30.9,0-56-25.1-56-56v-8h336v8c0,2.6,0.2,5.3,0.5,7.9c0.1,0.7,0.2,1.4,0.3,2.1
				c0.3,1.9,0.6,3.9,1,5.8c0.1,0.7,0.3,1.3,0.5,2c0.5,1.9,1,3.8,1.7,5.7c0.2,0.5,0.4,1.1,0.6,1.6c0.7,2,1.6,3.9,2.5,5.8
				c0.2,0.4,0.4,0.8,0.6,1.2c1,2,2.1,4,3.3,5.9c0.2,0.3,0.3,0.5,0.5,0.8c1.3,2,2.7,4,4.2,5.9l0.3,0.3c1.7,2.2,3.6,4.3,5.6,6.3
				c1.7,1.7,3.5,3.3,5.4,4.8L104,464z"/>
			<path d="M264,224c2.1,0,4.2-0.8,5.7-2.3l32-32c3.1-3.1,3.1-8.2,0-11.3l-32-32c-1.5-1.5-3.5-2.3-5.7-2.3H40
				c-22.1,0-40,17.9-40,40s17.9,40,40,40L264,224L264,224z M261.9,161.2l22.8,22.8l-22.8,22.8l-5.7-22.8L261.9,161.2z M64,160h181.8
				l-4,16H80v16h161.8l4,16H64V160z M16,184c0-13.3,10.7-24,24-24h8v48h-8C26.7,208,16,197.3,16,184z"/>
			<path d="M184,344h240c4.4,0,8-3.6,8-8V96c0-4.4-3.6-8-8-8c-2.1,0-4.2,0.8-5.7,2.3l-240,240c-3.1,3.1-3.1,8.2,0,11.3
				C179.8,343.2,181.9,344,184,344z M416,115.3V136h-16v16h16v16h-16v16h16v16h-16v16h16v16h-16v16h16v16h-16v16h16v16h-16v16h16v16
				h-16v-16h-16v16h-16v-16h-16v16h-16v-16h-16v16h-16v-16h-16v16h-16v-16h-16v16h-16v-16h-16v16h-20.7L416,115.3z"/>
			<path d="M299.9,296H376c4.4,0,8-3.6,8-8v-76.1c0-4.4-3.6-8-8-8c-2.1,0-4.2,0.8-5.7,2.3l-76.1,76.1
				c-3.1,3.1-3.1,8.2,0,11.3C295.7,295.2,297.8,296,299.9,296z M368,231.2V280h-48.8L368,231.2z"/>
			<rect x="208" y="48" width="160" height="16"/>
			<rect x="184" y="80" width="208" height="16"/>
			<rect x="136" y="248" width="48" height="16"/>
			<rect x="136" y="280" width="32" height="16"/>
    </g>
  </symbol>

  <symbol id="svg-2" viewBox="0 0 512 512">
    <g>
      <path d="M487.3,272.5c-4.1,0-7.5,3.4-7.5,7.5v203.1c0,7.6-6.2,13.8-13.8,13.8H289c-7.6,0-13.8-6.2-13.8-13.8v-20
      c0-4.1-3.4-7.5-7.5-7.5s-7.5,3.4-7.5,7.5v20c0,5,1.3,9.7,3.5,13.8H34.7c-1.4,0-2.5-1.1-2.5-2.5V313.2c0-4.1-3.4-7.5-7.5-7.5
      s-7.5,3.4-7.5,7.5v181.3c0,9.7,7.9,17.5,17.5,17.5h431.2c15.9,0,28.9-13,28.9-28.9V280C494.8,275.9,491.5,272.5,487.3,272.5
      L487.3,272.5z"/>
      <path d="M465.9,161.4h-72.6v-60.7c0-2-0.8-3.9-2.2-5.3L298,2.2c-1.4-1.4-3.3-2.2-5.3-2.2H34.7C25,0,17.2,7.9,17.2,17.5
        v265.6c0,4.1,3.4,7.5,7.5,7.5s7.5-3.4,7.5-7.5V17.5c0-1.4,1.1-2.5,2.5-2.5h250.4v65.6c0,15.2,12.4,27.6,27.6,27.6h65.6v53.2H289
        c-15.9,0-28.9,13-28.9,28.9v1.2H141c-4.1,0-7.5,3.4-7.5,7.5c0,4.1,3.4,7.5,7.5,7.5h119.1v51H141c-4.1,0-7.5,3.4-7.5,7.5
        s3.4,7.5,7.5,7.5h119.1v51H141c-4.1,0-7.5,3.4-7.5,7.5s3.4,7.5,7.5,7.5h119.1v51H141c-4.1,0-7.5,3.4-7.5,7.5s3.4,7.5,7.5,7.5h119.1
        v28.4c0,4.1,3.4,7.5,7.5,7.5s7.5-3.4,7.5-7.5V190.3c0-7.6,6.2-13.8,13.8-13.8h177c7.6,0,13.8,6.2,13.8,13.8V250
        c0,4.1,3.4,7.5,7.5,7.5s7.5-3.4,7.5-7.5v-59.7C494.8,174.3,481.9,161.4,465.9,161.4L465.9,161.4z M300.2,80.6V25.7l67.5,67.5h-54.9
        C305.8,93.1,300.2,87.5,300.2,80.6L300.2,80.6z"/>
      <path d="M458,213.6c0-9.7-7.9-17.5-17.5-17.5H315.7c-9.7,0-17.5,7.9-17.5,17.5V256c0,9.7,7.9,17.5,17.5,17.5h124.8
        c9.7,0,17.5-7.9,17.5-17.5V213.6z M443,256c0,1.4-1.1,2.5-2.5,2.5H315.7c-1.4,0-2.5-1.1-2.5-2.5v-42.4c0-1.4,1.1-2.5,2.5-2.5h124.8
        c1.4,0,2.5,1.1,2.5,2.5V256z"/>
      <path d="M298.2,335.2c0,9.3,7.5,16.8,16.8,16.8h14.3c9.3,0,16.8-7.5,16.8-16.8v-14.3c0-9.3-7.5-16.8-16.8-16.8H315
        c-9.3,0-16.8,7.5-16.8,16.8L298.2,335.2z M313.2,320.9c0-1,0.8-1.7,1.7-1.7h14.3c1,0,1.7,0.8,1.7,1.7v14.3c0,1-0.8,1.7-1.7,1.7H315
        c-1,0-1.7-0.8-1.7-1.7V320.9z"/>
      <path d="M402,320.9c0-9.3-7.5-16.8-16.8-16.8H371c-9.3,0-16.8,7.5-16.8,16.8v14.3c0,9.3,7.5,16.8,16.8,16.8h14.3
        c9.3,0,16.8-7.5,16.8-16.8V320.9z M387,335.2c0,1-0.8,1.7-1.7,1.7H371c-1,0-1.7-0.8-1.7-1.7v-14.3c0-1,0.8-1.7,1.7-1.7h14.3
        c1,0,1.7,0.8,1.7,1.7L387,335.2L387,335.2z"/>
      <path d="M458,320.9c0-9.3-7.5-16.8-16.8-16.8h-14.3c-9.3,0-16.8,7.5-16.8,16.8v14.3c0,9.3,7.5,16.8,16.8,16.8h14.3
        c9.3,0,16.8-7.5,16.8-16.8V320.9z M443,335.2c0,1-0.8,1.7-1.7,1.7h-14.3c-1,0-1.7-0.8-1.7-1.7v-14.3c0-1,0.8-1.7,1.7-1.7h14.3
        c1,0,1.7,0.8,1.7,1.7V335.2z"/>
      <path d="M298.2,396.5c0,9.3,7.5,16.8,16.8,16.8h14.3c9.3,0,16.8-7.5,16.8-16.8v-14.3c0-9.3-7.5-16.8-16.8-16.8H315
        c-9.3,0-16.8,7.5-16.8,16.8L298.2,396.5z M313.2,382.2c0-1,0.8-1.7,1.7-1.7h14.3c1,0,1.7,0.8,1.7,1.7v14.3c0,1-0.8,1.7-1.7,1.7H315
        c-1,0-1.7-0.8-1.7-1.7V382.2z"/>
      <path d="M402,382.2c0-9.3-7.5-16.8-16.8-16.8H371c-9.3,0-16.8,7.5-16.8,16.8v14.3c0,9.3,7.5,16.8,16.8,16.8h14.3
        c9.3,0,16.8-7.5,16.8-16.8V382.2z M387,396.5c0,1-0.8,1.7-1.7,1.7H371c-1,0-1.7-0.8-1.7-1.7v-14.3c0-1,0.8-1.7,1.7-1.7h14.3
        c1,0,1.7,0.8,1.7,1.7L387,396.5L387,396.5z"/>
      <path d="M298.2,457.8c0,9.3,7.5,16.8,16.8,16.8h14.3c9.3,0,16.8-7.5,16.8-16.8v-14.3c0-9.3-7.5-16.8-16.8-16.8H315
        c-9.3,0-16.8,7.5-16.8,16.8L298.2,457.8z M313.2,443.5c0-1,0.8-1.7,1.7-1.7h14.3c1,0,1.7,0.8,1.7,1.7v14.3c0,1-0.8,1.7-1.7,1.7H315
        c-1,0-1.7-0.8-1.7-1.7V443.5z"/>
      <path d="M385.3,426.7H371c-9.3,0-16.8,7.5-16.8,16.8v14.3c0,9.3,7.5,16.8,16.8,16.8h14.3c9.3,0,16.8-7.5,16.8-16.8
        v-14.3C402,434.2,394.5,426.7,385.3,426.7L385.3,426.7z M387,457.8c0,1-0.8,1.7-1.7,1.7H371c-1,0-1.7-0.8-1.7-1.7v-14.3
        c0-1,0.8-1.7,1.7-1.7h14.3c1,0,1.7,0.8,1.7,1.7L387,457.8L387,457.8z"/>
      <path d="M439.8,365.4h-11.5c-10,0-18.2,8.2-18.2,18.2v72.7c0,10,8.2,18.2,18.2,18.2h11.5c10,0,18.2-8.2,18.2-18.2
        v-72.7C458,373.6,449.9,365.4,439.8,365.4z M443,456.4c0,1.7-1.4,3.2-3.2,3.2h-11.5c-1.7,0-3.2-1.4-3.2-3.2v-72.7
        c0-1.7,1.4-3.2,3.2-3.2h11.5c1.7,0,3.2,1.4,3.2,3.2V456.4z"/>
      <path d="M77.2,140.4h30c4.2,0,7.5-3.4,7.5-7.5c0-4.1-3.4-7.5-7.5-7.5h-30c-4.2,0-7.5,3.4-7.5,7.5
        S73.1,140.4,77.2,140.4z"/>
      <path d="M141,140.4h144.6c4.1,0,7.5-3.4,7.5-7.5c0-4.1-3.4-7.5-7.5-7.5H141c-4.1,0-7.5,3.4-7.5,7.5
        C133.5,137,136.9,140.4,141,140.4z"/>
      <path d="M77.2,206.5h30c4.2,0,7.5-3.4,7.5-7.5s-3.4-7.5-7.5-7.5h-30c-4.2,0-7.5,3.4-7.5,7.5S73.1,206.5,77.2,206.5z"/>
      <path d="M77.2,272.5h30c4.2,0,7.5-3.4,7.5-7.5s-3.4-7.5-7.5-7.5h-30c-4.2,0-7.5,3.4-7.5,7.5S73.1,272.5,77.2,272.5z"/>
      <path d="M77.2,338.6h30c4.2,0,7.5-3.4,7.5-7.5s-3.4-7.5-7.5-7.5h-30c-4.2,0-7.5,3.4-7.5,7.5
        C69.7,335.2,73.1,338.6,77.2,338.6z"/>
      <path d="M77.2,404.7h30c4.2,0,7.5-3.4,7.5-7.5s-3.4-7.5-7.5-7.5h-30c-4.2,0-7.5,3.4-7.5,7.5S73.1,404.7,77.2,404.7z"/>
    </g>
  </symbol>

  <symbol id="svg-3" viewBox="0 0 494 494">
    <g>
      <path d="M441.9,24H122.5c-27.7,0-50.3,22.3-50.3,49.7L70.1,355H7.8c-4.4,0-7.8,3.9-7.8,8.3V402c0,36.2,29,65.9,64,67.5
      v0.5h269v-0.5c2,0.1,3.2,0.5,4.6,0.5h0.2c37.3-0.2,67.4-30.6,67.2-68V156h81.2c4.4,0,7.8-4,7.8-8.4v-71
      C494.1,47.7,470.8,24.2,441.9,24z M67.5,454L67.5,454C39,454,16,430.5,16,402v-31h254v30.9c-0.1,18,7.1,35.3,19.8,48
      c1.4,1.4,2.8,2.1,4.2,4.1H67.5z M389,402c0,28.5-22.8,52-51.2,52h-0.2c-28.6-0.2-51.7-23.5-51.6-52.1v-38.6c0-4.5-3.5-8.2-8-8.3
      H86.1l2.1-281.2c0-18.6,15.4-33.8,34.3-33.8h281.7C395,50,389,62.7,389,76.8V402z M478,76.7V140h-73V76.8c0-20,16.7-36.8,36.7-36.8
      h0.2C462,40.2,478.1,56.6,478,76.7L478,76.7z"/>
    <path d="M187.9,220.9l41.2,28.2c2.7,1.9,6.3,1.9,8.9,0l41.1-28.2c14.3-9.7,24.8-30.1,24.8-47.4v-57.1
      c0.1-3-1.6-5.8-4.3-7.2l-62.8-30.9c-2.2-1.1-4.8-1.1-7,0l-62.7,30.8c-2.7,1.4-4.3,4.2-4.3,7.2v57.1
      C163,190.8,173.6,211.2,187.9,220.9z M179,121.4l54.5-26.9l54.5,27v52.1c0,12.1-7.9,27.4-17.9,34.2l-36.7,25.1l-36.6-25.1
      c-10-6.8-17.8-22.1-17.8-34.2V121.4z"/>
    <path d="M220,185.6c1.5,1.5,3.5,2.4,5.7,2.4h0c2.1,0,4.2-0.9,5.7-2.4l31.8-31.8c3.1-3.1,3.1-8.2,0-11.3
      c-3.1-3.1-8.2-3.1-11.3,0l-26.1,26.1l-10.4-10.6c-3.1-3.1-8.2-3.2-11.3-0.1s-3.2,8.2-0.1,11.3L220,185.6z"/>
    <path d="M333,272H141c-4.4,0-8,3.6-8,8s3.6,8,8,8h192c4.4,0,8-3.6,8-8S337.4,272,333,272z"/>
    <path d="M333,309H141c-4.4,0-8,3.6-8,8s3.6,8,8,8h192c4.4,0,8-3.6,8-8S337.4,309,333,309z"/>
    </g>
  </symbol>

  <symbol id="svg-4" viewBox="0 0 512 512">
    <g>
      <path  d="M154.7,134.2c2.8-2.2,6-3.9,9.4-5c2.7-0.8,4.8-2.9,5.5-5.6c6.9-25.6,33.2-40.8,58.8-33.9
      c13.1,3.5,24.1,12.4,30.3,24.6c1,2,2.9,3.5,5,4.1c2.2,0.6,4.6,0.2,6.5-1c14.7-9.7,34.6-5.7,44.3,9c1,1.5,1.9,3.1,2.6,4.8
      c1.3,2.9,4.2,4.8,7.4,4.8c1.1,0,2.2-0.2,3.2-0.6c4-1.8,5.9-6.5,4.1-10.6c0,0,0,0,0,0C324.3,107.3,307.1,96,288,96
      c-6.6,0-13.1,1.4-19.1,4c-19.9-29.2-59.7-36.7-88.9-16.8c-11.4,7.8-20,19.1-24.5,32.2c-3.9,1.6-7.5,3.7-10.7,6.3
      c-3.5,2.7-4.2,7.7-1.6,11.2s7.7,4.2,11.2,1.6C154.5,134.5,154.6,134.3,154.7,134.2z"/>
    <path  d="M315.8,432c-4.2-1.2-8.6,1.3-9.8,5.5l-10,36.6c-1.2,4.3-5.6,6.7-9.9,5.5c-2.3-0.6-4.1-2.2-5.1-4.3l-52-110.7
      c-1.3-2.8-4.1-4.6-7.2-4.6h-62.6c-2.3,0-4.5,1-6.1,2.7L102,421.3c-2.9,3.3-8,3.7-11.3,0.7c-1.6-1.4-2.6-3.4-2.7-5.5
      c-0.1-2.1,0.6-4.2,2-5.8l56-64c1.5-1.7,3.7-2.7,6-2.7h80c3.1,0,6,1.8,7.3,4.6l37.8,81c1.9,4,6.6,5.8,10.6,3.9c2.1-1,3.7-2.8,4.3-5.1
      l45.8-162.2c0.9-4.3-1.9-8.6-6.3-9.4c-3.9-0.8-7.8,1.4-9.1,5.1L304,328H109.1L36.4,168H64c4.4,0,8-3.6,8-8s-3.6-8-8-8H24
      c-2.7,0-5.3,1.4-6.7,3.7c-1.5,2.3-1.7,5.1-0.6,7.6l80,176c1.3,2.9,4.1,4.7,7.3,4.7h23.1l-11.8,13.5c-8.6-3.6-17.9-5.5-27.3-5.5
      c-40.1-0.3-72.8,31.9-73.1,72s31.9,72.8,72,73.1c40.1,0.3,72.8-31.9,73.1-72c0.1-12.4-3-24.6-9-35.5l11.8-13.6h53.8l49.5,106.2
      c3.9,8.4,12.4,13.8,21.8,13.8h1.9c10-0.8,18.5-7.7,21.2-17.4l10.2-36.4c1.4-4.2-0.9-8.7-5.1-10.1C316.1,432.1,316,432,315.8,432
      L315.8,432z M282.5,403l-27.8-59h44.5L282.5,403z M108.5,436.4c-6.7,11.4-21.4,15.2-32.9,8.5c-11.4-6.7-15.2-21.4-8.5-32.9
      c2-3.5,4.9-6.4,8.4-8.4c-6.7,11.4-2.9,26.1,8.5,32.9C91.6,440.9,100.9,440.9,108.5,436.4z M144,424c0,30.9-25.1,56-56,56
      s-56-25.1-56-56s25.1-56,56-56c5.4,0,10.8,0.9,16,2.5L91.8,384c-1.3-0.1-2.6-0.1-3.8,0c-22.1,0-40,17.9-40,40s17.9,40,40,40
      s40-17.9,40-40c0-2.4-0.3-4.8-0.8-7.2l12.4-14.2C142.5,409.4,144,416.7,144,424L144,424z"/>
    <path  d="M472,80h-80c-10.7,0-20.2,7.1-23.1,17.4L353.5,152H96c-4.4,0-8,3.6-8,8s3.6,8,8,8h253l-17.4,61.8
      c-1.5,4.2,0.6,8.7,4.8,10.3c4.2,1.5,8.7-0.6,10.3-4.8c0.1-0.4,0.2-0.8,0.3-1.1L384,101.8c1-3.6,4.3-6,8-5.8h80c4.4,0,8,3.6,8,8
      s-3.6,8-8,8h-67.9c-3.7-0.1-7,2.3-8,5.8l-81.4,288c-1.3,4.2,1.1,8.7,5.3,10c0.2,0.1,0.4,0.1,0.6,0.2c0.7,0.1,1.4,0.1,2.2,0
      c3.7,0.1,7-2.3,8-5.8L410.2,128H472c13.3,0,24-10.7,24-24S485.3,80,472,80L472,80z"/>
    </g>
  </symbol>

  <symbol id="svg-5" viewBox="0 0 374 374">
    <g>
      <path d="M328.6,75.7L188.1,0.8c-2.1-1.1-4.6-1.1-6.7,0L44.7,75.8c-2.2,1.2-3.6,3.6-3.6,6.1v97.8
      c0.1,80.4,47.7,153.2,121.4,185.4l19,8.3c1.8,0.8,3.8,0.8,5.6,0l21.4-9.2c75.1-31.5,123.9-105,123.9-186.4V81.9
      C332.3,79.3,330.9,76.9,328.6,75.7z M318.3,177.8c0,75.8-45.5,144.2-115.4,173.5l0,0l-18.6,8l-16.2-7.1c-68.6-30-113-97.7-113-172.6
      V86l129.7-71.1l133.5,71.1V177.8z"/>
    <path d="M133.2,175.2c-2.5-2.9-6.9-3.3-9.9-0.8c-2.9,2.5-3.3,6.9-0.8,9.9l37,43.3c2.5,2.9,6.8,3.3,9.7,0.9l86.1-70
      c3-2.4,3.5-6.8,1-9.8c-2.4-3-6.8-3.5-9.8-1l-80.8,65.7L133.2,175.2z"/>
    </g>
  </symbol>

  <symbol id="svg-6" viewBox="0 0 512 512">
    <g>
      <path d="M321.4,63.8C265,35.3,197.2,46.2,152.5,90.9c-51.9,51.9-57.1,134.6-12.1,192.5c1.6,2,4,3.1,6.4,3.1
			c1.7,0,3.5-0.6,4.9-1.7c3.5-2.7,4.1-7.8,1.4-11.3c-40-51.4-35.4-125,10.8-171.2c39.7-39.7,100-49.4,150.1-24.1
			c4,2,8.8,0.4,10.8-3.6C326.9,70.7,325.3,65.8,321.4,63.8z"/>
      <path d="M385.8,128.2c-2-4-6.9-5.6-10.8-3.6c-4,2-5.6,6.9-3.6,10.8c25.3,50.1,15.6,110.4-24.1,150.1
        c-46.2,46.1-119.7,50.8-171.2,10.8c-3.5-2.7-8.6-2.1-11.3,1.4c-2.7,3.5-2.1,8.6,1.4,11.3c26.3,20.5,57.9,30.6,89.3,30.6
        c37.5,0,75-14.4,103.2-42.7C403.3,252.4,414.2,184.6,385.8,128.2z"/>
      <path d="M364.9,97.5c-2-2.3-4.1-4.5-6.2-6.6c-2.1-2.1-4.4-4.2-6.6-6.2c-3.3-3-8.4-2.6-11.4,0.7
        c-3,3.3-2.6,8.4,0.7,11.4c2,1.8,4,3.7,5.9,5.6c1.9,1.9,3.8,3.9,5.6,5.9c1.6,1.8,3.8,2.7,6,2.7c1.9,0,3.8-0.7,5.3-2
        C367.6,105.9,367.9,100.8,364.9,97.5z"/>
      <path d="M446.1,208.4c5.4-8.8,5.4-19.8,0-28.6l-10.6-17.4c-1.4-2.3-1.9-5-1.5-7.7l3.2-20.1c1.6-10.2-2.6-20.4-11-26.5
        l-16.5-12c-2.2-1.6-3.7-3.9-4.4-6.5l-4.8-19.8c-2.4-10.1-10.2-17.8-20.2-20.2l-19.8-4.8c-2.6-0.6-4.9-2.2-6.5-4.4L342,24
        c-6.1-8.4-16.3-12.6-26.5-11l-20.1,3.2c-2.7,0.4-5.4-0.1-7.7-1.5L270.3,4c-8.8-5.4-19.8-5.4-28.6,0l-17.4,10.6
        c-2.3,1.4-5,1.9-7.7,1.5L196.5,13c-10.2-1.6-20.4,2.6-26.5,11l-12,16.5c-1.6,2.2-3.9,3.7-6.5,4.4l-19.8,4.8
        c-10.1,2.4-17.8,10.2-20.2,20.2l-4.8,19.8c-0.6,2.6-2.2,4.9-4.4,6.5l-16.5,12c-8.4,6.1-12.6,16.3-11,26.5l3.2,20.1
        c0.4,2.7-0.1,5.4-1.5,7.7l-10.6,17.4c-5.4,8.8-5.4,19.8,0,28.6l10.6,17.4c1.4,2.3,1.9,5,1.5,7.7l-3.2,20.1
        c-1.6,10.2,2.6,20.4,11,26.5l16.5,12c2.2,1.6,3.7,3.9,4.4,6.5l4.8,19.8c2.4,10.1,10.2,17.8,20.2,20.2l8.3,2L84,465.4
        c-1.2,2.7-0.9,5.7,0.9,8.1c1.7,2.3,4.6,3.6,7.5,3.2l45-5.4l25.9,37.2c1.5,2.2,4,3.5,6.6,3.5c0.3,0,0.5,0,0.8,0
        c2.9-0.3,5.4-2.1,6.6-4.7l57.1-127.5l7.2,4.4c4.4,2.7,9.4,4,14.3,4c4.9,0,9.9-1.3,14.3-4l7.5-4.6L335,507.2
        c1.2,2.7,3.7,4.5,6.6,4.7c0.3,0,0.5,0,0.8,0c2.6,0,5.1-1.3,6.6-3.5l25.9-37.2l45,5.4c2.9,0.3,5.7-0.9,7.5-3.2
        c1.7-2.3,2.1-5.4,0.9-8.1l-56-124.9l8-1.9c10.1-2.4,17.8-10.2,20.2-20.2l4.8-19.8c0.6-2.6,2.2-4.9,4.4-6.5l16.5-12
        c8.4-6.1,12.6-16.3,11-26.5l-3.2-20.1c-0.4-2.7,0.1-5.4,1.5-7.7L446.1,208.4z M168.4,487.6l-20.6-29.5c-1.7-2.4-4.6-3.8-7.6-3.4
        l-35.7,4.3l51-113.7c0.9,0.7,1.8,1.5,2.5,2.5l12,16.5c1.1,1.6,2.4,3,3.8,4.2L147,428.3c-1.8,4.1,0,8.8,4.1,10.7
        c1.1,0.5,2.2,0.7,3.3,0.7c3.1,0,6-1.8,7.4-4.8l26.7-59.6c2.6,0.4,5.3,0.4,8.1-0.1l20.1-3.2c1.2-0.2,2.4-0.2,3.6,0L168.4,487.6z
        M407.7,459l-35.7-4.3c-3-0.4-5.9,1-7.6,3.4l-20.6,29.5L292.1,372c1.1-0.1,2.2-0.1,3.3,0l20.1,3.2c2.8,0.4,5.6,0.4,8.4,0
        l26.8,59.7c1.3,3,4.3,4.8,7.4,4.8c1.1,0,2.2-0.2,3.3-0.7c4.1-1.8,5.9-6.6,4.1-10.7l-26.9-60.1c1.3-1.2,2.5-2.5,3.6-4l12-16.5
        c0.8-1,1.7-1.9,2.7-2.6L407.7,459z M432.3,200l-10.6,17.4c-3.4,5.6-4.7,12.2-3.7,18.6l3.2,20.1c0.7,4.2-1.1,8.4-4.5,10.9l-16.5,12
        c-5.3,3.8-9,9.4-10.5,15.8l-4.8,19.8c-1,4.2-4.2,7.4-8.4,8.4l-19.8,4.8c-6.3,1.5-11.9,5.3-15.8,10.5l-12,16.5
        c-2.5,3.5-6.7,5.2-10.9,4.5l-20.1-3.2c-6.4-1-13,0.3-18.6,3.7l-17.4,10.6c-3.6,2.2-8.2,2.2-11.8,0l-17.4-10.6
        c-4.3-2.6-9.3-4-14.3-4c-1.4,0-2.8,0.1-4.3,0.3l-20.1,3.2c-4.2,0.7-8.4-1.1-10.9-4.5l-12-16.5c-3.8-5.3-9.4-9-15.8-10.5l-19.8-4.8
        c-4.2-1-7.4-4.2-8.4-8.4l-4.8-19.8c-1.5-6.3-5.3-11.9-10.5-15.8l-16.4-12c-3.5-2.5-5.2-6.7-4.5-10.9L94,236c1-6.4-0.3-13-3.7-18.6
        L79.7,200c-2.2-3.6-2.2-8.2,0-11.8l10.6-17.4c3.4-5.6,4.7-12.2,3.7-18.6l-3.2-20.1c-0.7-4.2,1.1-8.4,4.5-10.9l16.5-12
        c5.3-3.8,9-9.4,10.5-15.8l4.8-19.8c1-4.2,4.2-7.4,8.4-8.4l19.8-4.8c6.3-1.5,11.9-5.3,15.8-10.5l12-16.5c2.5-3.5,6.7-5.2,10.9-4.5
        l20.1,3.2c6.4,1,13-0.3,18.6-3.7l17.4-10.6c3.6-2.2,8.2-2.2,11.8,0l17.4,10.6c5.6,3.4,12.2,4.7,18.6,3.7l20.1-3.2
        c4.2-0.7,8.4,1.1,10.9,4.5l12,16.5c3.8,5.3,9.4,9,15.8,10.5l19.8,4.8c4.2,1,7.4,4.2,8.4,8.4l4.8,19.8c1.5,6.3,5.3,11.9,10.5,15.8
        l16.5,12c3.5,2.5,5.2,6.7,4.5,10.9l-3.2,20.1c-1,6.4,0.3,13,3.7,18.6l10.6,17.4C434.5,191.8,434.5,196.4,432.3,200z"/>
      <path d="M350.4,169c-1.8-5.5-6.4-9.3-12.1-10l-48.6-5.8l-20.5-44.4c-2.4-5.2-7.5-8.5-13.2-8.5
        c-5.8,0-10.8,3.2-13.2,8.5l-20.5,44.4l-48.6,5.8c-5.7,0.7-10.4,4.5-12.1,10c-1.8,5.5-0.3,11.3,4,15.2l35.9,33.2l-9.5,48
        c-1.1,5.6,1.1,11.3,5.7,14.6c2.6,1.9,5.6,2.8,8.6,2.8c2.4,0,4.9-0.6,7.1-1.9L256,257l42.7,23.9c5,2.8,11,2.5,15.7-0.9
        s6.9-9,5.7-14.6l-9.5-48l35.9-33.2C350.7,180.3,352.2,174.5,350.4,169z M296.3,208.6c-2.1,1.9-3,4.7-2.4,7.5l9.8,49.1l-43.7-24.4
        c-1.2-0.7-2.6-1-3.9-1s-2.7,0.3-3.9,1l-43.7,24.4l9.8-49.1c0.5-2.8-0.4-5.6-2.4-7.5l-36.7-34l49.7-5.9c2.8-0.3,5.2-2.1,6.4-4.6
        l21-45.4l21,45.4c1.2,2.5,3.6,4.3,6.4,4.6l49.7,5.9L296.3,208.6z"/>
    </g>
  </symbol>

</svg>