<svg xmlns="http://www.w3.org/2000/svg" xmlns:xlink="http://www.w3.org/1999/xlink" width="291" height="80" viewBox="0 0 291 80"><defs><path id="iapga" d="M225 74c0-1.5 1.5-3 3-3h24c1.5 0 3 1.5 3 3v21c0 1.5-1.5 3-3 3h-24c-1.5 0-3-1.5-3-3z"/><path id="iapgb" d="M185 45h291v76c0 2-2 4-4 4H189c-2 0-4-2-4-4z"/><path id="iapgc" d="M413.873 94.146v-18.61h4.918v7.045h2.34l4.227-7.045h5.45l-5.849 9.066 6.115 9.544h-5.45l-4.52-7.178h-2.313v7.178zm-14.143-6.912h4.785l-1.914-5.37c-.16-.452-.319-.904-.478-1.888-.16.984-.32 1.436-.479 1.887zm-7.577 6.912l7.311-18.61h5.317l7.311 18.61h-5.051l-1.064-2.925h-7.71l-1.063 2.925zm-18.53 0v-18.61h16.749v18.61h-4.918V79.923h-6.913v14.223zm-8.4-4.254c-1.676 3.59-3.723 4.653-6.248 4.653-.957 0-1.968-.213-2.978-.505v-4.068a6.43 6.43 0 0 0 2.154.372c1.17 0 1.994-.319 2.419-1.276l.292-.638-7.257-12.894h5.45l4.094 8.48 3.35-8.48h5.45l-6.727 14.356zm-21.561-10.235c-3.217 0-4.919 2.206-4.919 5.184s1.702 5.184 4.919 5.184c3.216 0 4.918-2.206 4.918-5.184s-1.702-5.184-4.918-5.184zm0-4.52c6.646 0 9.97 4.52 9.97 9.704 0 5.184-3.324 9.704-9.97 9.704-6.647 0-9.97-4.52-9.97-9.704 0-5.184 3.323-9.704 9.97-9.704zm-12.549.4v18.609h-4.918v-7.098h-6.912v7.098h-4.918v-18.61h4.918v7.125h6.912v-7.125zm-37.245 18.609l6.38-9.677-5.982-8.933h5.743l3.376 5.477 3.376-5.477h5.743l-5.982 8.933 6.38 9.677h-5.742l-3.775-6.248-3.775 6.248zm-.957-18.61v4.254h-8.481v2.844h7.683v4.228h-7.683v3.03h8.64v4.254h-13.558v-18.61zm-15.5 0v4.387h-5.237v14.223h-4.918V79.923h-5.264v-4.387z"/><path id="iapge" d="M230 77c0-.5.5-1 1-1h17c.5 0 1 .5 1 1v15c0 .5-.5 1-1 1h-17c-.5 0-1-.5-1-1z"/><path id="iapgf" d="M230 77c0-.5.5-1 1-1h10c.5 0 1 .5 1 1v9c0 .5-.5 1-1 1h-10c-.5 0-1-.5-1-1z"/><clipPath id="iapgd"><use fill="#fff" xlink:href="#iapga"/></clipPath></defs><g><g transform="translate(-185 -45)"><g><use fill="#f8fcfc" xlink:href="#iapgb"/></g><g><use fill="#1d1d1d" xlink:href="#iapgc"/></g><g><use fill="#1d1d1d" xlink:href="#iapga"/><use fill="#fff" fill-opacity="0" stroke="#1d1d1d" stroke-miterlimit="50" stroke-width="22" clip-path="url(&quot;#iapgd&quot;)" xlink:href="#iapga"/></g><g><use fill="#05797a" xlink:href="#iapge"/></g><g><use fill="#fff" xlink:href="#iapgf"/></g></g></g></svg>