<svg xmlns="http://www.w3.org/2000/svg" width="226" height="30" viewBox="0 0 226 30"><defs><clipPath id="52cpa"><path fill="#fff" d="M0 3c0-1.5 1.5-3 3-3h26c1.5 0 3 1.5 3 3v24c0 1.5-1.5 3-3 3H3c-1.5 0-3-1.5-3-3z"/></clipPath></defs><g><g><g><path fill="#fff" d="M206.417 25.202V4.852h5.378v7.704h2.558l4.622-7.703h5.96l-6.396 9.913 6.686 10.436h-5.959l-4.942-7.85h-2.529v7.85zm-15.465-7.559h5.233l-2.093-5.872c-.175-.494-.35-.988-.524-2.064-.174 1.076-.348 1.57-.523 2.064zm-8.285 7.559l7.994-20.35h5.814l7.995 20.35h-5.524l-1.162-3.198h-8.43l-1.163 3.198zm-20.261 0V4.852h18.314v20.35h-5.378V9.649h-7.558v15.553zm-9.186-4.652c-1.832 3.925-4.07 5.088-6.832 5.088-1.046 0-2.151-.233-3.256-.553v-4.447c.698.261 1.57.407 2.355.407 1.28 0 2.18-.35 2.645-1.396l.32-.697-7.936-14.1h5.96l4.476 9.274 3.663-9.273h5.96L153.22 20.55zM129.644 9.36c-3.517 0-5.378 2.412-5.378 5.668 0 3.256 1.86 5.669 5.378 5.669 3.517 0 5.378-2.413 5.378-5.669s-1.86-5.668-5.378-5.668zm0-4.942c7.267 0 10.901 4.942 10.901 10.61 0 5.669-3.634 10.61-10.901 10.61-7.267 0-10.901-4.941-10.901-10.61 0-5.668 3.634-10.61 10.901-10.61zm-13.72.436v20.349h-5.379V17.44h-7.558v7.762h-5.378V4.852h5.378v7.791h7.558v-7.79zM75.195 25.202l6.977-10.582-6.54-9.767h6.278l3.692 5.988 3.692-5.988h6.28l-6.541 9.767 6.976 10.582h-6.279l-4.128-6.832-4.128 6.832zM74.15 4.852v4.652h-9.273v3.11h8.4v4.623h-8.4v3.313h9.447v4.652H59.5V4.852zm-16.948 0V9.65h-5.727v15.553h-5.377V9.649h-5.756V4.853z"/></g><g><path fill="#1d1d1d" d="M0 3c0-1.5 1.5-3 3-3h26c1.5 0 3 1.5 3 3v24c0 1.5-1.5 3-3 3H3c-1.5 0-3-1.5-3-3z"/><path fill="none" stroke="#1d1d1d" stroke-miterlimit="20" stroke-width="22" d="M0 3c0-1.5 1.5-3 3-3h26c1.5 0 3 1.5 3 3v24c0 1.5-1.5 3-3 3H3c-1.5 0-3-1.5-3-3z" clip-path="url(&quot;#52cpa&quot;)"/></g><g><path fill="#05797a" d="M5 3c0-.5.5-1 1-1h22c.5 0 1 .5 1 1v21c0 .5-.5 1-1 1H6c-.5 0-1-.5-1-1z"/></g><g><path fill="#fff" d="M5 3c0-.5.5-1 1-1h13c.5 0 1 .5 1 1v13c0 .5-.5 1-1 1H6c-.5 0-1-.5-1-1z"/></g></g></g></svg>